<svg xmlns="http://www.w3.org/2000/svg" viewBox="0 0 500 500" xml:space="preserve">
  <path fill="#04311D" d="M436.672 48.083c32.65 3.49 54.839 28.817 52.006 60.22-1.204 13.349-4.701 26.499-7.284 39.714-12.087 61.852-24.486 123.645-36.188 185.57-4.037 21.36-13.45 38.915-29.962 53.076-22.506 19.302-44.57 39.115-66.909 58.613-14.387 12.558-31.346 18.659-50.336 18.683-76.978.099-153.957.091-230.935.02-36.94-.035-62.76-31.349-55.776-67.575 5.855-30.369 11.89-60.704 17.868-91.05 1.667-8.465 6.053-15.377 12.794-21.444-7.496-10.7-4.325-22.077-2.014-33.52 5.433-26.892 10.552-53.847 16.015-80.732 3.253-16.01 11.373-29.391 23.544-40.182 18.945-16.796 38.092-33.362 57.11-50.075 6.243-5.486 12.008-11.573 18.592-16.597 13.518-10.315 29.14-15.256 46.077-15.242 78.312.067 156.623.32 235.398.52m-143.17 20.606c-31.325-.18-62.652-.72-93.971-.425-25.319.238-44.821 11.796-55.816 34.601-5.09 10.558-7.187 22.744-9.511 34.417-10.199 51.228-19.992 102.536-29.909 153.819-1.176 6.085-2.205 12.198-3.315 18.374 20.4-1.024 38.563-6.709 55.124-17.5 2.476-1.613 3.19-3.326 2.702-6.169-2.777-16.153-3.596-32.378-2.014-48.746 6.118-63.304 51.978-107.923 105.366-124.983 22.269-7.116 45.367-8.262 68.678-6.247 27.335 2.364 53.28 9.577 78.052 21.204 3.842 1.803 7.516 3.963 11.55 6.108-1.467 1.877-2.501 3.167-3.502 4.483-12.971 17.06-23.945 35.112-30.072 55.94-8.013 27.243-18.889 53.302-34.395 77.247-13.764 21.255-30.548 39.525-52.736 52.235-32.423 18.572-66.795 20.885-102.368 11.552-9.557-2.508-18.948-5.665-27.728-11.435 2.048-1.615 3.575-2.857 5.141-4.049 11.233-8.542 20.628-18.65 28.45-30.515 30.34-46.022 68.474-84.032 116.546-111.6 1.723-.988 3.417-2.025 5.847-3.47-1.477-.294-1.868-.51-2.099-.398-6.581 3.19-13.276 6.175-19.694 9.668-44.793 24.377-82.538 56.515-110.335 99.781-3.892 6.058-9.046 11.596-14.555 16.268-12.994 11.017-28.495 17.594-44.437 23.194-11.899 4.179-23.746 8.508-35.56 12.919-1.395.52-3.315 1.84-3.5 3.023-.924 5.882-2.43 11.97-1.754 17.753 2.55 21.82 18.324 35.243 40.55 35.252 75.651.029 151.303.015 226.955.009 32.034-.003 57.036-21.021 62.848-52.497 3.926-21.26 8.186-42.457 12.327-63.676 10.417-53.372 20.907-106.73 31.254-160.116 4.556-23.506-14.172-45.825-38.15-45.842-44.99-.03-89.98-.114-135.97-.179"/>
  <path fill="#85ED02" d="M294 68.69c45.49.063 90.48.147 135.47.177 23.98.017 42.707 22.336 38.151 45.842-10.347 53.386-20.837 106.744-31.254 160.116-4.141 21.219-8.401 42.416-12.327 63.676-5.812 31.476-30.814 52.494-62.848 52.497-75.652.006-151.304.02-226.956-.01-22.225-.008-38-13.43-40.549-35.25-.676-5.785.83-11.872 1.753-17.754.186-1.183 2.106-2.503 3.5-3.023 11.815-4.41 23.662-8.74 35.56-12.92 15.943-5.6 31.444-12.176 44.438-23.193 5.509-4.672 10.663-10.21 14.555-16.268 27.797-43.266 65.542-75.404 110.335-99.781 6.418-3.493 13.113-6.478 19.694-9.668.231-.112.622.104 2.1.399-2.43 1.444-4.125 2.481-5.848 3.47-48.072 27.567-86.205 65.577-116.546 111.599-7.822 11.865-17.217 21.973-28.45 30.515-1.566 1.192-3.093 2.434-5.14 4.05 8.78 5.77 18.17 8.926 27.727 11.434 35.573 9.333 69.945 7.02 102.368-11.552 22.188-12.71 38.972-30.98 52.736-52.235 15.506-23.945 26.382-50.004 34.395-77.247 6.127-20.828 17.1-38.88 30.072-55.94 1-1.316 2.035-2.606 3.502-4.483-4.034-2.145-7.708-4.305-11.55-6.108-24.772-11.627-50.717-18.84-78.052-21.204-23.31-2.015-46.41-.87-68.678 6.247-53.388 17.06-99.248 61.679-105.366 124.983-1.582 16.368-.763 32.593 2.014 48.746.488 2.843-.226 4.556-2.702 6.17-16.561 10.79-34.725 16.475-55.124 17.499 1.11-6.176 2.139-12.29 3.315-18.374 9.917-51.283 19.71-102.591 29.909-153.819 2.324-11.673 4.421-23.86 9.51-34.417 10.996-22.805 30.498-34.363 55.817-34.601 31.319-.295 62.646.246 94.47.427"/>
</svg>
